# xmcd CD database file
#
# Track frame offsets:
#	150
#	21950
#	36800
#	52250
#	70250
#	82400
#	95150
#	111850
#	123875
#	137225
#	156800
#	178250
#
# Disc length: 2611 seconds
#
# Revision: 0
# Processed by: cddbd v1.5.1PL2 Copyright (c) Steve Scherf et al.
# Submitted via: CDex 1.51
#
DISCID=b30a310c
DTITLE=Christina George - Cottage In The Country
DYEAR=2000
DGENRE=Country
TTITLE0=Fields Of Athenry
TTITLE1=Is There A Way
TTITLE2=Just Out Of Reach
TTITLE3=She Broke Her Promise
TTITLE4=Walkin' Talkin' Crying
TTITLE5=I'll Paint The Town
TTITLE6=Lion In The Winter
TTITLE7=Everybody's Reaching Out For Someone
TTITLE8=If Love Had A Heart
TTITLE9=Cottage In The Country
TTITLE10=How Many Hearts
TTITLE11=I'll Accept The Rose
EXTD=YEAR: 2000
EXTT0=
EXTT1=
EXTT2=
EXTT3=
EXTT4=
EXTT5=
EXTT6=
EXTT7=
EXTT8=
EXTT9=
EXTT10=
EXTT11=
PLAYORDER=
